<svg width="85" height="120" viewBox="0 0 85 120" fill="none" xmlns="http://www.w3.org/2000/svg">
<path d="M10.5683 12.6234L7.9043 11.8409L10.1243 4.07075C10.4095 3.07416 11.0229 2.20308 11.8651 1.59867C12.7072 0.994256 13.7288 0.691933 14.7642 0.740691L74.5499 4.70346C75.5877 4.76451 76.3925 5.73578 76.5923 7.17325L77.1473 11.4746L74.3723 11.8464L73.8172 7.54511V7.43411L14.5977 3.51574C14.1883 3.50873 13.7884 3.63954 13.4623 3.88716C13.1362 4.13477 12.9027 4.48482 12.7995 4.88106L10.5683 12.6234Z" fill="#A0A0A0"/>
<path d="M82.6033 23.5292H2.41555C2.17453 23.529 1.93693 23.4721 1.72194 23.3632C1.50694 23.2542 1.32058 23.0963 1.17788 22.902C1.03494 22.7031 0.940863 22.4734 0.903258 22.2314C0.865652 21.9893 0.885579 21.7419 0.961423 21.509L3.78642 12.9174C3.98941 12.3004 4.37965 11.7619 4.90287 11.377C5.42609 10.992 6.05628 10.7797 6.70577 10.7695H78.302C78.9515 10.7797 79.5817 10.992 80.1049 11.377C80.6281 11.7619 81.0184 12.3004 81.2214 12.9174L84.0464 21.5034C84.1222 21.7363 84.1421 21.9838 84.1045 22.2258C84.0669 22.4678 83.9729 22.6976 83.8299 22.8965C83.6902 23.0915 83.5061 23.2506 83.2929 23.3606C83.0796 23.4706 82.8433 23.5284 82.6033 23.5292ZM4.13053 20.7542H80.8884L78.5851 13.7832C78.5662 13.7203 78.5293 13.6642 78.4791 13.6218C78.4288 13.5794 78.3673 13.5526 78.302 13.5446H6.70577C6.64051 13.5526 6.579 13.5794 6.52873 13.6218C6.47847 13.6642 6.44163 13.7203 6.42272 13.7832L4.13053 20.7542Z" fill="#A0A0A0"/>
<path d="M65.8217 119.264H19.2009C18.4762 119.262 17.777 118.997 17.2343 118.516C16.6917 118.036 16.343 117.374 16.2538 116.655L4.7207 22.3867L7.49575 22.0537L18.9956 116.317C19.001 116.364 19.0239 116.408 19.0597 116.44C19.0956 116.471 19.1419 116.489 19.1898 116.489H65.8106C65.8585 116.489 65.9048 116.471 65.9407 116.44C65.9765 116.408 65.9994 116.364 66.0049 116.317L77.5435 22.0315L80.3186 22.3645L68.7799 116.655C68.6905 117.376 68.3402 118.039 67.7952 118.52C67.2503 119.001 66.5483 119.265 65.8217 119.264Z" fill="#A0A0A0"/>
<path d="M76.0133 46.4229H9.0625L14.818 93.41H70.2523L76.0133 46.4229Z" fill="#A0A0A0"/>
<path d="M42.532 87.955C52.494 87.955 60.5698 79.8792 60.5698 69.9172C60.5698 59.9552 52.494 51.8794 42.532 51.8794C32.5699 51.8794 24.4941 59.9552 24.4941 69.9172C24.4941 79.8792 32.5699 87.955 42.532 87.955Z" fill="white"/>
</svg>
