<svg width="94" height="94" viewBox="0 0 94 94" fill="none" xmlns="http://www.w3.org/2000/svg">
<circle cx="47" cy="47" r="47" fill="#F5D009"/>
<path d="M26.6809 60.507H43.1092V65.0769H17.252V63.515C23.2294 57.2677 27.5679 52.5628 30.2673 49.4006C32.9668 46.1998 34.7408 43.7702 35.5892 42.112C36.4376 40.4537 36.8618 38.7569 36.8618 37.0215C36.8618 36.0574 36.6883 35.1704 36.3412 34.3606C36.0327 33.5507 35.5699 32.8566 34.9529 32.2781C34.3744 31.6997 33.661 31.2562 32.8126 30.9477C31.9642 30.6391 31.0386 30.4849 30.036 30.4849C28.6091 30.4849 27.3557 30.7741 26.276 31.3526C25.1962 31.8925 24.367 32.6638 23.7886 33.6664C23.2101 34.6691 22.9209 35.8067 22.9209 37.0793V38.0049H18.1775V37.0793C18.1775 34.8812 18.6595 32.9337 19.6236 31.2369C20.6263 29.5401 22.0146 28.2289 23.7886 27.3033C25.6011 26.3778 27.6835 25.915 30.036 25.915C33.4682 25.915 36.2641 26.9563 38.4236 29.0387C40.5832 31.0826 41.663 33.7436 41.663 37.0215C41.663 38.9111 41.316 40.7044 40.6218 42.4012C39.9276 44.098 38.5008 46.3733 36.3412 49.227C34.2202 52.0422 31.0001 55.8022 26.6809 60.507Z" fill="black"/>
<path d="M74.8893 65.0769H69.3361L60.4278 52.0615L51.4038 65.0769H46.0241L57.4776 48.8221L46.9496 33.84H52.445L60.4278 45.4092L68.5841 33.84H73.9638L63.3779 48.6486L74.8893 65.0769Z" fill="black"/>
</svg>
