<svg width="217" height="309" viewBox="0 0 217 309" fill="none" xmlns="http://www.w3.org/2000/svg">
<path d="M25.6192 31.0991L18.6875 29.0629L24.4639 8.84539C25.206 6.25231 26.802 3.9858 28.9932 2.41315C31.1844 0.840503 33.8425 0.0538719 36.5367 0.180738L192.096 10.4917C194.797 10.6505 196.89 13.1777 197.41 16.918L198.854 28.1098L191.634 29.0773L190.19 17.8855V17.5967L36.1034 7.40128C35.0382 7.38305 33.9977 7.72341 33.1491 8.36769C32.3005 9.01197 31.6932 9.92277 31.4245 10.9538L25.6192 31.0991Z" fill="black"/>
<path d="M213.046 59.4762H4.40099C3.77387 59.4756 3.15565 59.3277 2.59625 59.0442C2.03684 58.7607 1.55192 58.3497 1.18063 57.8443C0.808722 57.3268 0.563931 56.729 0.466084 56.0992C0.368237 55.4695 0.420085 54.8256 0.617429 54.2196L7.96794 31.8648C8.4961 30.2593 9.51149 28.8583 10.8729 27.8566C12.2343 26.855 13.874 26.3026 15.5639 26.2761H201.854C203.544 26.3026 205.184 26.855 206.545 27.8566C207.906 28.8583 208.922 30.2593 209.45 31.8648L216.8 54.2052C216.998 54.8111 217.05 55.4551 216.952 56.0848C216.854 56.7145 216.609 57.3124 216.237 57.8299C215.874 58.3374 215.395 58.7513 214.84 59.0375C214.285 59.3237 213.67 59.4741 213.046 59.4762ZM8.86329 52.2556H208.583L202.59 34.1176C202.541 33.9538 202.445 33.8078 202.315 33.6976C202.184 33.5873 202.024 33.5175 201.854 33.4967H15.5639C15.3941 33.5175 15.2341 33.5873 15.1033 33.6976C14.9725 33.8078 14.8767 33.9538 14.8274 34.1176L8.86329 52.2556Z" fill="black"/>
<path d="M169.378 308.571H48.0733C46.1877 308.567 44.3682 307.876 42.9563 306.626C41.5444 305.377 40.6372 303.655 40.4051 301.783L10.3965 56.5016L17.617 55.6352L47.5389 300.902C47.5532 301.026 47.6127 301.14 47.7059 301.223C47.7992 301.306 47.9198 301.351 48.0444 301.35H169.349C169.474 301.351 169.595 301.306 169.688 301.223C169.781 301.14 169.841 301.026 169.855 300.902L199.878 55.5774L207.098 56.4439L177.075 301.783C176.843 303.66 175.931 305.386 174.513 306.636C173.095 307.886 171.269 308.574 169.378 308.571Z" fill="black"/>
<path d="M195.894 119.045H21.6914L36.6668 241.303H180.904L195.894 119.045Z" fill="black"/>
<path d="M108.785 227.108C134.706 227.108 155.719 206.095 155.719 180.175C155.719 154.254 134.706 133.241 108.785 133.241C82.8644 133.241 61.8516 154.254 61.8516 180.175C61.8516 206.095 82.8644 227.108 108.785 227.108Z" fill="#F5D009"/>
<path d="M135.473 164.479C134.815 163.84 133.761 163.84 133.103 164.479L102.371 194.915L86.709 179.404C86.0352 178.903 85.0921 178.969 84.4962 179.559C83.9003 180.15 83.833 181.084 84.3385 181.752L101.271 198.521C101.929 199.16 102.982 199.16 103.641 198.521L135.473 166.911C135.81 166.595 136 166.155 136 165.696C136 165.236 135.81 164.796 135.473 164.48V164.479Z" fill="black"/>
</svg>
