<svg width="287" height="287" viewBox="0 0 287 287" fill="none" xmlns="http://www.w3.org/2000/svg">
<path d="M272.735 129.965L159.07 136.817L244.319 61.1977C244.698 60.8504 245.108 60.44 245.456 60.0611C246.608 58.7612 247.494 57.247 248.061 55.605C248.629 53.963 248.867 52.2252 248.763 50.491C248.659 48.7568 248.214 47.0601 247.455 45.4977C246.695 43.9353 245.635 42.5379 244.335 41.3852C243.035 40.2325 241.521 39.3472 239.879 38.7797C238.237 38.2122 236.499 37.9737 234.765 38.0777C233.031 38.1818 231.334 38.6265 229.771 39.3863C228.209 40.1461 226.812 41.2062 225.659 42.5061L149.882 127.755L156.828 14.0265C156.828 13.5214 156.828 12.953 156.828 12.4479C156.619 8.94338 155.026 5.66561 152.4 3.33561C149.774 1.0056 146.33 -0.18577 142.825 0.0235768C139.321 0.232924 136.043 1.82584 133.713 4.45191C131.383 7.07797 130.192 10.5221 130.401 14.0265L137.252 127.85L61.6333 42.6008L60.4335 41.401C57.8083 39.0731 54.3658 37.8833 50.8634 38.0935C47.361 38.3037 44.0855 39.8966 41.7576 42.5219C39.4297 45.1471 38.2399 48.5895 38.4501 52.0919C38.6603 55.5943 40.2533 58.8698 42.8785 61.1977L128.128 136.975L14.4621 129.965H12.8834C9.37893 130.175 6.10116 131.768 3.77115 134.394C1.44115 137.02 0.249777 140.464 0.459124 143.968C0.668471 147.473 2.26139 150.751 4.88745 153.081C7.51352 155.411 10.9576 156.602 14.4621 156.393L128.286 149.51L43.0363 225.287C42.689 225.602 42.2786 226.013 41.9313 226.392C40.7786 227.692 39.8932 229.206 39.3257 230.848C38.7582 232.49 38.5197 234.228 38.6238 235.962C38.7279 237.696 39.1725 239.393 39.9323 240.955C40.6921 242.517 41.7523 243.915 43.0521 245.068C44.352 246.22 45.8662 247.106 47.5082 247.673C49.1503 248.241 50.888 248.479 52.6222 248.375C54.3564 248.271 56.0532 247.826 57.6155 247.066C59.1779 246.307 60.5753 245.247 61.728 243.947L137.505 158.698L130.401 272.3C130.369 272.836 130.369 273.374 130.401 273.91C130.614 277.415 132.211 280.691 134.84 283.018C137.469 285.345 140.915 286.532 144.42 286.319C147.924 286.105 151.2 284.508 153.527 281.879C155.854 279.25 157.042 275.804 156.828 272.3L149.945 158.634L225.722 243.884C226.066 244.285 226.435 244.665 226.827 245.02C229.452 247.348 232.895 248.538 236.397 248.328C239.9 248.117 243.175 246.525 245.503 243.899C247.831 241.274 249.021 237.832 248.811 234.329C248.6 230.827 247.007 227.551 244.382 225.223L159.133 149.446L272.956 156.329H274.567C276.302 156.224 277.999 155.777 279.562 155.016C281.125 154.254 282.522 153.192 283.674 151.89C284.827 150.588 285.711 149.072 286.278 147.429C286.844 145.785 287.081 144.046 286.975 142.311C286.87 140.576 286.423 138.878 285.661 137.315C284.9 135.753 283.837 134.355 282.536 133.203C281.234 132.051 279.718 131.166 278.074 130.6C276.431 130.034 274.692 129.797 272.956 129.902L272.735 129.965Z" fill="#F5D009"/>
</svg>
