<svg width="441" height="283" viewBox="0 0 441 283" fill="none" xmlns="http://www.w3.org/2000/svg">
<path d="M25.9602 4H415.367C427.315 4 436.999 15.9478 436.999 25.6321V257.221C436.999 269.169 427.315 278.853 415.367 278.853H25.9602C14.0125 278.853 4.32812 266.905 4.32812 257.221V25.6321C4.32812 13.6843 14.0125 4 25.9602 4Z" stroke="black" stroke-width="7.46667" stroke-miterlimit="10"/>
<path d="M355.875 70.4697C358.814 75.559 360.361 81.3309 360.361 87.2088C360.361 93.0867 358.814 98.8586 355.875 103.948" stroke="black" stroke-width="7.46667" stroke-linecap="round" stroke-linejoin="round"/>
<path d="M343.922 77.4465C345.635 80.4118 346.536 83.7809 346.536 87.206C346.536 90.6354 345.635 94.0007 343.922 96.9694" stroke="black" stroke-width="7.46667" stroke-linecap="round" stroke-linejoin="round"/>
<path d="M367.609 63.7632C375.974 78.2729 375.974 96.1397 367.609 110.653" stroke="black" stroke-width="7.46667" stroke-linecap="round" stroke-linejoin="round"/>
<path d="M380.699 56.1914C390.829 75.6131 390.829 98.7541 380.699 118.177" stroke="black" stroke-width="7.46667" stroke-linecap="round" stroke-linejoin="round"/>
<path d="M59.6015 56.1914H110.117C116.093 56.1914 120.933 62.1672 120.933 67.0077V108.978C120.933 114.954 116.089 119.795 110.117 119.795H59.6015C53.6257 119.795 48.7852 113.819 48.7852 108.978V67.0077C48.7852 61.0319 53.6292 56.1914 59.6015 56.1914Z" stroke="black" stroke-width="7.46667" stroke-linecap="round" stroke-linejoin="round"/>
</svg>
