<svg width="1080" height="1058" viewBox="0 0 1080 1058" fill="none" xmlns="http://www.w3.org/2000/svg">
<path d="M1278.59 1053.92C1349.76 933.431 1377.78 687.141 1208.82 571.713C1039.87 456.284 786.48 578.175 537.64 600.198C288.799 622.221 171.5 535.107 9.00712 268.58C-153.018 2.64857 -540.458 -85.8679 -784.154 94.6086C-965.948 229.084 -907.235 961.916 -672.637 1093.71C-410.234 1241.45 1172.3 1233.76 1278.59 1053.92Z" fill="url(#paint0_linear_5_41)"/>
<path d="M1096.83 1143C1009.57 1143 937.983 1113.67 879.626 1054.35C812.597 986.197 772.374 887.896 736.896 801.207C693.074 694.236 655.223 601.55 581.159 590.646C473.416 574.644 381.926 634.945 293.463 693.255C218.226 742.788 147.189 789.649 69.3064 789.649C39.7461 789.649 15.5578 778.39 -2.63106 756.173C-34.073 717.735 -47.7079 647.893 -43.1539 548.201C-40.8812 501.88 -35.4602 455.767 -26.9284 410.181C-26.7837 409.458 -26.3577 408.822 -25.744 408.413C-25.4401 408.211 -25.0994 408.07 -24.7411 407.999C-24.3828 407.928 -24.0141 407.929 -23.656 408C-23.2979 408.072 -22.9574 408.213 -22.654 408.416C-22.3505 408.62 -22.0901 408.88 -21.8875 409.184C-21.6849 409.488 -21.5442 409.829 -21.4733 410.187C-21.4024 410.545 -21.4028 410.914 -21.4744 411.272C-21.9926 413.78 -71.378 663.405 1.70483 752.683C18.7211 773.565 41.4641 784.196 69.3064 784.196C145.662 784.196 215.936 737.853 290.464 688.784C379.772 629.792 472.162 568.838 581.95 585.194C659.096 596.671 697.492 690.475 741.941 799.108C777.228 885.36 817.233 983.09 883.526 1050.51C959.526 1127.68 1058.27 1153.17 1185.86 1128.42C1186.59 1128.28 1187.34 1128.43 1187.94 1128.85C1188.55 1129.26 1188.97 1129.9 1189.11 1130.62C1189.25 1131.35 1189.09 1132.09 1188.68 1132.7C1188.26 1133.31 1187.62 1133.73 1186.9 1133.87C1157.24 1139.79 1127.08 1142.85 1096.83 1143Z" fill="white"/>
<defs>
<linearGradient id="paint0_linear_5_41" x1="221.725" y1="1197.3" x2="221.725" y2="0.000219348" gradientUnits="userSpaceOnUse">
<stop stop-color="#F5D009"/>
<stop offset="1" stop-color="#FFE764"/>
</linearGradient>
</defs>
</svg>
