<svg width="103" height="103" viewBox="0 0 103 103" fill="none" xmlns="http://www.w3.org/2000/svg">
<rect width="103" height="103" rx="35" fill="#F5D009"/>
<path fill-rule="evenodd" clip-rule="evenodd" d="M70.9709 41.7263L74.3318 38.3654C76.1084 36.5889 76.1083 33.7085 74.3318 31.9319L70.9709 28.571C70.2095 27.8097 68.9751 27.8097 68.2137 28.571C67.4523 29.3324 67.4523 30.5669 68.2137 31.3282L71.5746 34.6891C71.8284 34.9429 71.8284 35.3544 71.5746 35.6082L68.2137 38.9691C67.4523 39.7305 67.4523 40.9649 68.2137 41.7263C68.9751 42.4877 70.2095 42.4877 70.9709 41.7263ZM74.7913 71.5419V67.2633C74.7913 65.1374 73.497 63.2257 71.5232 62.4361L66.2354 60.321C63.7248 59.3168 60.8636 60.4046 59.6544 62.8231L59.1942 63.7434C59.1942 63.7434 52.6954 62.4436 47.4964 57.2446C42.2974 52.0455 40.9976 45.5467 40.9976 45.5467L41.9179 45.0866C44.3364 43.8774 45.4242 41.0161 44.42 38.5056L42.3049 33.2178C41.5153 31.2439 39.6036 29.9496 37.4777 29.9496H33.199C30.3277 29.9496 28 32.2773 28 35.1487C28 58.1195 46.6215 76.741 69.5923 76.741C72.4636 76.741 74.7913 74.4133 74.7913 71.5419ZM60.5728 41.7263C59.8114 42.4877 58.577 42.4877 57.8156 41.7263C57.0542 40.9649 57.0542 39.7305 57.8156 38.9691L59.6864 37.0983H53.9952C52.9184 37.0983 52.0455 36.2254 52.0455 35.1487C52.0455 34.0719 52.9184 33.199 53.9952 33.199H59.6864L57.8156 31.3282C57.0542 30.5669 57.0542 29.3324 57.8156 28.571C58.577 27.8097 59.8114 27.8097 60.5728 28.571L63.9337 31.9319C65.7103 33.7085 65.7103 36.5889 63.9337 38.3654L60.5728 41.7263Z" fill="black"/>
</svg>
